<svg xmlns="http://www.w3.org/2000/svg" xmlns:xlink="http://www.w3.org/1999/xlink" width="1280" zoomAndPan="magnify" viewBox="0 0 960 959.999988" height="1280" preserveAspectRatio="xMidYMid meet" version="1.0"><defs><clipPath id="0b5653b2c6"><path d="M 19.398438 257.546875 L 941 257.546875 L 941 702.453125 L 19.398438 702.453125 Z M 19.398438 257.546875 " clip-rule="nonzero"/></clipPath><clipPath id="23e84b6811"><path d="M 480 702.453125 L 940.601562 257.546875 L 19.398438 257.546875 Z M 480 702.453125 " clip-rule="nonzero"/></clipPath><clipPath id="4a56dfb3bb"><path d="M 0.398438 0.546875 L 921.800781 0.546875 L 921.800781 445.453125 L 0.398438 445.453125 Z M 0.398438 0.546875 " clip-rule="nonzero"/></clipPath><clipPath id="ead55edb1d"><path d="M 461 445.453125 L 921.601562 0.546875 L 0.398438 0.546875 Z M 461 445.453125 " clip-rule="nonzero"/></clipPath><clipPath id="ebc4cb37ab"><rect x="0" width="922" y="0" height="446"/></clipPath></defs><rect x="-96" width="1152" fill="#ffffff" y="-95.999999" height="1151.999986" fill-opacity="1"/><rect x="-96" width="1152" fill="#f4f4f4" y="-95.999999" height="1151.999986" fill-opacity="1"/><g clip-path="url(#0b5653b2c6)"><g clip-path="url(#23e84b6811)"><g transform="matrix(1, 0, 0, 1, 19, 257)"><g clip-path="url(#ebc4cb37ab)"><g clip-path="url(#4a56dfb3bb)"><g clip-path="url(#ead55edb1d)"><path fill="#beb2a6" d="M 0.398438 0.546875 L 921.484375 0.546875 L 921.484375 445.453125 L 0.398438 445.453125 Z M 0.398438 0.546875 " fill-opacity="1" fill-rule="nonzero"/></g></g></g></g></g></g></svg>