<svg xmlns="http://www.w3.org/2000/svg" xmlns:xlink="http://www.w3.org/1999/xlink" width="1280" zoomAndPan="magnify" viewBox="0 0 960 959.999988" height="1280" preserveAspectRatio="xMidYMid meet" version="1.0"><defs><clipPath id="1676605f2e"><path d="M 89.640625 92.746094 L 871 92.746094 L 871 867.253906 L 89.640625 867.253906 Z M 89.640625 92.746094 " clip-rule="nonzero"/></clipPath><clipPath id="5098d53b5d"><path d="M 480 867.253906 L 870.359375 92.746094 L 89.640625 92.746094 Z M 480 867.253906 " clip-rule="nonzero"/></clipPath><clipPath id="6969f0cd63"><path d="M 0.640625 0.746094 L 781.480469 0.746094 L 781.480469 775.253906 L 0.640625 775.253906 Z M 0.640625 0.746094 " clip-rule="nonzero"/></clipPath><clipPath id="ece97cfa0b"><path d="M 391 775.253906 L 781.359375 0.746094 L 0.640625 0.746094 Z M 391 775.253906 " clip-rule="nonzero"/></clipPath><clipPath id="279cb796d9"><rect x="0" width="782" y="0" height="776"/></clipPath></defs><rect x="-96" width="1152" fill="#ffffff" y="-95.999999" height="1151.999986" fill-opacity="1"/><rect x="-96" width="1152" fill="#f4f4f4" y="-95.999999" height="1151.999986" fill-opacity="1"/><g clip-path="url(#1676605f2e)"><g clip-path="url(#5098d53b5d)"><g transform="matrix(1, 0, 0, 1, 89, 92)"><g clip-path="url(#279cb796d9)"><g clip-path="url(#6969f0cd63)"><g clip-path="url(#ece97cfa0b)"><path fill="#e0dfde" d="M 0.640625 0.746094 L 781.199219 0.746094 L 781.199219 775.253906 L 0.640625 775.253906 Z M 0.640625 0.746094 " fill-opacity="1" fill-rule="nonzero"/></g></g></g></g></g></g></svg>